<svg style="background-color: rgb(51,51,51);" width="284px" height="134px" viewBox="0 0 134.603 93.182" xmlns="http://www.w3.org/2000/svg"><g id="svgGroup" stroke-linecap="round" fill-rule="evenodd" font-size="9pt" stroke="#AAA" stroke-width="0.25mm" fill="none" style="stroke:#AAA;stroke-width:0.25mm;fill:none"><path d="M 0 64.125 L 0 7.125 L 38 7.125 L 38 2.375 L 57 2.375 L 57 0 L 76 0 L 76 2.375 L 95 2.375 L 95 4.75 L 134.603 4.75 L 134.603 68.501 L 120.353 93.182 L 103.718 83.835 L 66.5 79 L 57 64.125 L 0 64.125 Z M 118.1 42.75 A 0.5 0.5 0 0 1 117.6 42.25 L 117.6 7.25 A 0.5 0.5 0 0 1 118.1 6.75 L 131.1 6.75 A 0.5 0.5 0 0 1 131.6 7.25 L 131.6 42.25 A 0.5 0.5 0 0 1 131.1 42.75 L 118.1 42.75 Z M 121.795 89.685 A 3 3 0 0 1 117.697 90.783 L 107.305 84.783 A 3 3 0 0 1 106.207 80.685 L 116.707 62.498 A 3 3 0 0 1 120.805 61.4 L 131.197 67.4 A 3 3 0 0 1 132.295 71.498 L 121.795 89.685 Z M 132.49 4.75 A 1 1 0 0 1 133.49 5.75 L 133.49 36.75 A 1 1 0 0 1 132.49 37.75 L 116.71 37.75 A 1 1 0 0 1 115.71 36.75 L 115.71 5.75 A 1 1 0 0 1 116.71 4.75 M 119.2 37.8 L 119.2 13.2 L 130 13.2 L 130 37.8 L 119.2 37.8 Z M 3.5 63.625 A 3 3 0 0 1 0.5 60.625 L 0.5 48.625 A 3 3 0 0 1 3.5 45.625 L 15.5 45.625 A 3 3 0 0 1 18.5 48.625 L 18.5 60.625 A 3 3 0 0 1 15.5 63.625 L 3.5 63.625 Z M 3.5 44.625 A 3 3 0 0 1 0.5 41.625 L 0.5 29.625 A 3 3 0 0 1 3.5 26.625 L 15.5 26.625 A 3 3 0 0 1 18.5 29.625 L 18.5 41.625 A 3 3 0 0 1 15.5 44.625 L 3.5 44.625 Z M 3.5 25.625 A 3 3 0 0 1 0.5 22.625 L 0.5 10.625 A 3 3 0 0 1 3.5 7.625 L 15.5 7.625 A 3 3 0 0 1 18.5 10.625 L 18.5 22.625 A 3 3 0 0 1 15.5 25.625 L 3.5 25.625 Z M 22.5 63.625 A 3 3 0 0 1 19.5 60.625 L 19.5 48.625 A 3 3 0 0 1 22.5 45.625 L 34.5 45.625 A 3 3 0 0 1 37.5 48.625 L 37.5 60.625 A 3 3 0 0 1 34.5 63.625 L 22.5 63.625 Z M 22.5 44.625 A 3 3 0 0 1 19.5 41.625 L 19.5 29.625 A 3 3 0 0 1 22.5 26.625 L 34.5 26.625 A 3 3 0 0 1 37.5 29.625 L 37.5 41.625 A 3 3 0 0 1 34.5 44.625 L 22.5 44.625 Z M 22.5 25.625 A 3 3 0 0 1 19.5 22.625 L 19.5 10.625 A 3 3 0 0 1 22.5 7.625 L 34.5 7.625 A 3 3 0 0 1 37.5 10.625 L 37.5 22.625 A 3 3 0 0 1 34.5 25.625 L 22.5 25.625 Z M 41.5 58.875 A 3 3 0 0 1 38.5 55.875 L 38.5 43.875 A 3 3 0 0 1 41.5 40.875 L 53.5 40.875 A 3 3 0 0 1 56.5 43.875 L 56.5 55.875 A 3 3 0 0 1 53.5 58.875 L 41.5 58.875 Z M 41.5 39.875 A 3 3 0 0 1 38.5 36.875 L 38.5 24.875 A 3 3 0 0 1 41.5 21.875 L 53.5 21.875 A 3 3 0 0 1 56.5 24.875 L 56.5 36.875 A 3 3 0 0 1 53.5 39.875 L 41.5 39.875 Z M 41.5 20.875 A 3 3 0 0 1 38.5 17.875 L 38.5 5.875 A 3 3 0 0 1 41.5 2.875 L 53.5 2.875 A 3 3 0 0 1 56.5 5.875 L 56.5 17.875 A 3 3 0 0 1 53.5 20.875 L 41.5 20.875 Z M 60.5 56.5 A 3 3 0 0 1 57.5 53.5 L 57.5 41.5 A 3 3 0 0 1 60.5 38.5 L 72.5 38.5 A 3 3 0 0 1 75.5 41.5 L 75.5 53.5 A 3 3 0 0 1 72.5 56.5 L 60.5 56.5 Z M 60.5 37.5 A 3 3 0 0 1 57.5 34.5 L 57.5 22.5 A 3 3 0 0 1 60.5 19.5 L 72.5 19.5 A 3 3 0 0 1 75.5 22.5 L 75.5 34.5 A 3 3 0 0 1 72.5 37.5 L 60.5 37.5 Z M 60.5 18.5 A 3 3 0 0 1 57.5 15.5 L 57.5 3.5 A 3 3 0 0 1 60.5 0.5 L 72.5 0.5 A 3 3 0 0 1 75.5 3.5 L 75.5 15.5 A 3 3 0 0 1 72.5 18.5 L 60.5 18.5 Z M 79.5 58.875 A 3 3 0 0 1 76.5 55.875 L 76.5 43.875 A 3 3 0 0 1 79.5 40.875 L 91.5 40.875 A 3 3 0 0 1 94.5 43.875 L 94.5 55.875 A 3 3 0 0 1 91.5 58.875 L 79.5 58.875 Z M 79.5 39.875 A 3 3 0 0 1 76.5 36.875 L 76.5 24.875 A 3 3 0 0 1 79.5 21.875 L 91.5 21.875 A 3 3 0 0 1 94.5 24.875 L 94.5 36.875 A 3 3 0 0 1 91.5 39.875 L 79.5 39.875 Z M 79.5 20.875 A 3 3 0 0 1 76.5 17.875 L 76.5 5.875 A 3 3 0 0 1 79.5 2.875 L 91.5 2.875 A 3 3 0 0 1 94.5 5.875 L 94.5 17.875 A 3 3 0 0 1 91.5 20.875 L 79.5 20.875 Z M 98.5 61.25 A 3 3 0 0 1 95.5 58.25 L 95.5 46.25 A 3 3 0 0 1 98.5 43.25 L 110.5 43.25 A 3 3 0 0 1 113.5 46.25 L 113.5 58.25 A 3 3 0 0 1 110.5 61.25 L 98.5 61.25 Z M 98.5 42.25 A 3 3 0 0 1 95.5 39.25 L 95.5 27.25 A 3 3 0 0 1 98.5 24.25 L 110.5 24.25 A 3 3 0 0 1 113.5 27.25 L 113.5 39.25 A 3 3 0 0 1 110.5 42.25 L 98.5 42.25 Z M 98.5 23.25 A 3 3 0 0 1 95.5 20.25 L 95.5 8.25 A 3 3 0 0 1 98.5 5.25 L 110.5 5.25 A 3 3 0 0 1 113.5 8.25 L 113.5 20.25 A 3 3 0 0 1 110.5 23.25 L 98.5 23.25 Z M 70 78.5 A 3 3 0 0 1 67 75.5 L 67 63.5 A 3 3 0 0 1 70 60.5 L 82 60.5 A 3 3 0 0 1 85 63.5 L 85 75.5 A 3 3 0 0 1 82 78.5 L 70 78.5 Z M 88.875 79.34 A 3 3 0 0 1 86.754 75.666 L 89.86 64.075 A 3 3 0 0 1 93.534 61.954 L 105.125 65.06 A 3 3 0 0 1 107.246 68.734 L 104.14 80.325 A 3 3 0 0 1 100.466 82.446 L 88.875 79.34 Z M 120.23 11.4 A 0.1 0.1 0 0 1 120.13 11.3 L 120.13 4.15 A 0.1 0.1 0 0 1 120.23 4.05 L 128.97 4.05 A 0.1 0.1 0 0 1 129.07 4.15 L 129.07 11.3 A 0.1 0.1 0 0 1 128.97 11.4 L 120.23 11.4 Z M 118.29 42.78 A 0.1 0.1 0 0 1 118.19 42.68 L 118.19 40.22 A 0.1 0.1 0 0 1 118.29 40.12 L 130.91 40.12 A 0.1 0.1 0 0 1 131.01 40.22 L 131.01 42.68 A 0.1 0.1 0 0 1 130.91 42.78 L 118.29 42.78 Z M 19 26.125 m -2.15 0 a 2.15 2.15 0 0 1 4.3 0 a 2.15 2.15 0 0 1 -4.3 0 z M 95 22.563 m -2.15 0 a 2.15 2.15 0 0 1 4.3 0 a 2.15 2.15 0 0 1 -4.3 0 z M 19 45.125 m -2.15 0 a 2.15 2.15 0 0 1 4.3 0 a 2.15 2.15 0 0 1 -4.3 0 z M 62.15 62.363 m -2.15 0 a 2.15 2.15 0 0 1 4.3 0 a 2.15 2.15 0 0 1 -4.3 0 z M 108.859 70.092 m -2.15 0 a 2.15 2.15 0 0 1 4.3 0 a 2.15 2.15 0 0 1 -4.3 0 z" vector-effect="non-scaling-stroke"/></g></svg>