<svg style="background-color: rgb(51,51,51);" width="284px" height="134px" viewBox="0 0 307.055 92.572" xmlns="http://www.w3.org/2000/svg"><g id="svgGroup" stroke-linecap="round" fill-rule="evenodd" font-size="9pt" stroke="#AAA" stroke-width="0.25mm" fill="none" style="stroke:#AAA;stroke-width:0.25mm;fill:none"><path d="M 1.288 19.136 L 29.788 19.136 L 29.788 37.136 L 1.288 37.136 L 1.288 19.136 Z M 277.267 19.136 L 305.767 19.136 L 305.767 37.136 L 277.267 37.136 L 277.267 19.136 Z M 198.406 23.611 L 216.159 20.64 L 219.13 38.393 L 201.376 41.364 L 198.406 23.611 Z M 71.846 20.64 L 89.599 23.611 L 86.628 41.364 L 68.875 38.393 L 71.846 20.64 Z M 178.143 29.068 L 195.489 24.257 L 200.299 41.603 L 182.954 46.413 L 178.143 29.068 Z M 92.516 24.257 L 109.861 29.068 L 105.051 46.413 L 87.706 41.603 L 92.516 24.257 Z M 58.923 0.136 L 76.84 1.861 L 75.115 19.778 L 57.198 18.053 L 58.923 0.136 Z M 211.164 1.861 L 229.082 0.136 L 230.807 18.053 L 212.89 19.778 L 211.164 1.861 Z M 239.274 19.136 L 257.274 19.136 L 257.274 37.136 L 239.274 37.136 L 239.274 19.136 Z M 38.1 0 L 56.1 0 L 56.1 18 L 38.1 18 L 38.1 0 Z M 19.05 0 L 37.05 0 L 37.05 18 L 19.05 18 L 19.05 0 Z M 0 0 L 18 0 L 18 18 L 0 18 L 0 0 Z M 30.731 19.136 L 48.731 19.136 L 48.731 37.136 L 30.731 37.136 L 30.731 19.136 Z M 23.443 38.283 L 41.443 38.283 L 41.443 56.283 L 23.443 56.283 L 23.443 38.283 Z M 4.393 38.283 L 22.393 38.283 L 22.393 56.283 L 4.393 56.283 L 4.393 38.283 Z M 231.905 0 L 249.905 0 L 249.905 18 L 231.905 18 L 231.905 0 Z M 250.955 0 L 268.955 0 L 268.955 18 L 250.955 18 L 250.955 0 Z M 270.005 0 L 288.005 0 L 288.005 18 L 270.005 18 L 270.005 0 Z M 289.055 0 L 307.055 0 L 307.055 18 L 289.055 18 L 289.055 0 Z M 258.324 19.136 L 276.324 19.136 L 276.324 37.136 L 258.324 37.136 L 258.324 19.136 Z M 246.562 38.283 L 264.562 38.283 L 264.562 56.283 L 246.562 56.283 L 246.562 38.283 Z M 265.612 38.283 L 283.612 38.283 L 283.612 56.283 L 265.612 56.283 L 265.612 38.283 Z M 284.662 38.283 L 302.662 38.283 L 302.662 56.283 L 284.662 56.283 L 284.662 38.283 Z M 79.637 2.266 L 97.307 5.701 L 93.872 23.37 L 76.203 19.936 L 79.637 2.266 Z M 190.698 5.701 L 208.367 2.266 L 211.802 19.936 L 194.133 23.37 L 190.698 5.701 Z M 42.816 38.295 L 60.813 38.609 L 60.499 56.606 L 42.502 56.292 L 42.816 38.295 Z M 227.192 38.609 L 245.189 38.295 L 245.503 56.292 L 227.506 56.606 L 227.192 38.609 Z M 119.979 12.417 L 136.668 19.16 L 129.926 35.849 L 113.236 29.106 L 119.979 12.417 Z M 165.609 54.485 L 182.298 47.743 L 189.041 64.432 L 172.352 71.175 L 165.609 54.485 Z M 112.843 30.08 L 129.532 36.823 L 122.789 53.512 L 106.1 46.769 L 112.843 30.08 Z M 105.707 47.743 L 122.396 54.485 L 115.653 71.175 L 98.964 64.432 L 105.707 47.743 Z M 151.336 19.16 L 168.026 12.417 L 174.768 29.106 L 158.079 35.849 L 151.336 19.16 Z M 158.473 36.823 L 175.162 30.08 L 181.905 46.769 L 165.215 53.512 L 158.473 36.823 Z M 107.814 68.807 L 124.258 76.128 L 116.936 92.572 L 100.492 85.251 L 107.814 68.807 Z M 163.747 76.128 L 180.191 68.807 L 187.512 85.251 L 171.068 92.572 L 163.747 76.128 Z M 100.052 6.373 L 117.311 11.485 L 112.199 28.744 L 94.94 23.632 L 100.052 6.373 Z M 170.694 11.485 L 187.953 6.373 L 193.065 23.632 L 175.806 28.744 L 170.694 11.485 Z M 87.5 62.385 L 104.713 67.648 L 99.451 84.861 L 82.237 79.599 L 87.5 62.385 Z M 183.291 67.648 L 200.505 62.385 L 205.767 79.599 L 188.554 84.861 L 183.291 67.648 Z M 64.113 38.869 L 81.938 41.374 L 79.433 59.199 L 61.608 56.693 L 64.113 38.869 Z M 206.067 41.374 L 223.892 38.869 L 226.397 56.693 L 208.572 59.199 L 206.067 41.374 Z M 50.911 19.203 L 68.878 20.302 L 67.779 38.268 L 49.812 37.169 L 50.911 19.203 Z M 219.127 20.302 L 237.094 19.203 L 238.192 37.169 L 220.226 38.268 L 219.127 20.302 Z M 85.181 42.034 L 102.568 46.692 L 97.909 64.079 L 80.522 59.42 L 85.181 42.034 Z M 185.437 46.692 L 202.824 42.034 L 207.482 59.42 L 190.096 64.079 L 185.437 46.692 Z" vector-effect="non-scaling-stroke"/></g></svg>