<svg style="background-color: rgb(51,51,51);" width="284px" height="134px" viewBox="0 0 247.367 93.424" xmlns="http://www.w3.org/2000/svg"><g id="svgGroup" stroke-linecap="round" fill-rule="evenodd" font-size="9pt" stroke="#AAA" stroke-width="0.25mm" fill="none" style="stroke:#AAA;stroke-width:0.25mm;fill:none"><path d="M 102.252 75.424 L 145.115 75.424 L 145.115 93.424 L 102.252 93.424 L 102.252 75.424 Z M 77.808 71.568 L 101.389 74.882 L 98.884 92.707 L 75.303 89.393 L 77.808 71.568 Z M 145.978 74.882 L 169.559 71.568 L 172.064 89.393 L 148.483 92.707 L 145.978 74.882 Z M 51.939 61.999 L 75.751 61.999 L 75.751 79.999 L 51.939 79.999 L 51.939 61.999 Z M 171.615 61.999 L 195.428 61.999 L 195.428 79.999 L 171.615 79.999 L 171.615 61.999 Z M 207.559 44.279 L 225.383 41.774 L 227.889 59.599 L 210.064 62.104 L 207.559 44.279 Z M 188.081 42.207 L 205.906 39.702 L 208.411 57.527 L 190.586 60.032 L 188.081 42.207 Z M 185.436 23.392 L 203.261 20.887 L 205.766 38.712 L 187.942 41.217 L 185.436 23.392 Z M 202.27 6.649 L 220.095 4.144 L 222.6 21.969 L 204.775 24.474 L 202.27 6.649 Z M 182.792 4.577 L 200.617 2.072 L 203.122 19.897 L 185.297 22.402 L 182.792 4.577 Z M 163.314 2.505 L 181.139 0 L 183.644 17.825 L 165.819 20.33 L 163.314 2.505 Z M 145.162 9.866 L 162.987 7.36 L 165.492 25.185 L 147.667 27.69 L 145.162 9.866 Z M 204.914 25.464 L 222.739 22.959 L 225.244 40.784 L 207.419 43.289 L 204.914 25.464 Z M 168.603 40.135 L 186.428 37.63 L 188.933 55.455 L 171.108 57.96 L 168.603 40.135 Z M 165.959 21.32 L 183.783 18.815 L 186.288 36.64 L 168.464 39.145 L 165.959 21.32 Z M 150.451 47.496 L 168.275 44.991 L 170.781 62.815 L 152.956 65.321 L 150.451 47.496 Z M 147.806 28.681 L 165.631 26.176 L 168.136 44 L 150.311 46.505 L 147.806 28.681 Z M 132.298 54.856 L 150.123 52.351 L 152.628 70.176 L 134.803 72.681 L 132.298 54.856 Z M 129.654 36.041 L 147.479 33.536 L 149.984 51.361 L 132.159 53.866 L 129.654 36.041 Z M 127.01 17.226 L 144.835 14.721 L 147.34 32.546 L 129.515 35.051 L 127.01 17.226 Z M 41.461 39.702 L 59.286 42.207 L 56.781 60.032 L 38.956 57.527 L 41.461 39.702 Z M 2.505 43.846 L 20.33 46.351 L 17.825 64.176 L 0 61.671 L 2.505 43.846 Z M 5.149 25.031 L 22.974 27.536 L 20.469 45.361 L 2.644 42.856 L 5.149 25.031 Z M 21.983 41.774 L 39.808 44.279 L 37.303 62.104 L 19.478 59.599 L 21.983 41.774 Z M 24.627 22.959 L 42.452 25.464 L 39.947 43.289 L 22.122 40.784 L 24.627 22.959 Z M 27.272 4.144 L 45.096 6.649 L 42.591 24.474 L 24.766 21.969 L 27.272 4.144 Z M 44.105 20.887 L 61.93 23.392 L 59.425 41.217 L 41.6 38.712 L 44.105 20.887 Z M 46.75 2.072 L 64.574 4.577 L 62.069 22.402 L 44.244 19.897 L 46.75 2.072 Z M 60.939 37.63 L 78.764 40.135 L 76.259 57.96 L 58.434 55.455 L 60.939 37.63 Z M 84.38 7.36 L 102.205 9.866 L 99.699 27.69 L 81.875 25.185 L 84.38 7.36 Z M 97.243 52.351 L 115.068 54.856 L 112.563 72.681 L 94.738 70.176 L 97.243 52.351 Z M 99.888 33.536 L 117.713 36.041 L 115.207 53.866 L 97.383 51.361 L 99.888 33.536 Z M 102.532 14.721 L 120.357 17.226 L 117.852 35.051 L 100.027 32.546 L 102.532 14.721 Z M 7.794 6.216 L 25.619 8.721 L 23.113 26.546 L 5.289 24.04 L 7.794 6.216 Z M 221.748 8.721 L 239.573 6.216 L 242.078 24.04 L 224.253 26.546 L 221.748 8.721 Z M 63.583 18.815 L 81.408 21.32 L 78.903 39.145 L 61.078 36.64 L 63.583 18.815 Z M 66.227 0 L 84.052 2.505 L 81.547 20.33 L 63.722 17.825 L 66.227 0 Z M 79.091 44.991 L 96.916 47.496 L 94.411 65.321 L 76.586 62.815 L 79.091 44.991 Z M 81.735 26.176 L 99.56 28.681 L 97.055 46.505 L 79.23 44 L 81.735 26.176 Z M 227.037 46.351 L 244.861 43.846 L 247.367 61.671 L 229.542 64.176 L 227.037 46.351 Z M 224.392 27.536 L 242.217 25.031 L 244.722 42.856 L 226.897 45.361 L 224.392 27.536 Z" vector-effect="non-scaling-stroke"/></g></svg>