<svg style="background-color: rgb(51,51,51);" width="284px" height="134px" viewBox="0 0 130.101 87.1" xmlns="http://www.w3.org/2000/svg"><g id="svgGroup" stroke-linecap="round" fill-rule="evenodd" font-size="9pt" stroke="#AAA" stroke-width="0.25mm" fill="none" style="stroke:#AAA;stroke-width:0.25mm;fill:none"><path d="M 103.523 79.428 L 114.372 57.183 L 130.101 64.854 L 119.251 87.1 L 103.523 79.428 Z M 87.769 59.79 L 104.947 63.129 L 101.799 79.326 L 84.621 75.987 L 87.769 59.79 Z M 36.951 19.527 L 54.427 18.612 L 55.29 35.089 L 37.814 36.005 L 36.951 19.527 Z M 36.061 2.551 L 53.537 1.635 L 54.401 18.112 L 36.925 19.028 L 36.061 2.551 Z M 37.84 36.504 L 55.316 35.588 L 56.18 52.066 L 38.704 52.982 L 37.84 36.504 Z M 57.981 34 L 75.481 34 L 75.481 50.5 L 57.981 50.5 L 57.981 34 Z M 57.981 17 L 75.481 17 L 75.481 33.5 L 57.981 33.5 L 57.981 17 Z M 57.981 0 L 75.481 0 L 75.481 16.5 L 57.981 16.5 L 57.981 0 Z M 94.184 42.013 L 111.673 42.624 L 111.098 59.114 L 93.608 58.503 L 94.184 42.013 Z M 94.777 25.023 L 112.267 25.634 L 111.691 42.124 L 94.201 41.513 L 94.777 25.023 Z M 95.371 8.034 L 112.86 8.644 L 112.284 25.134 L 94.795 24.524 L 95.371 8.034 Z M 0 30.731 L 17.433 29.205 L 18.871 45.643 L 1.438 47.168 L 0 30.731 Z M 19.413 46.097 L 36.847 44.572 L 38.285 61.009 L 20.851 62.534 L 19.413 46.097 Z M 17.932 29.162 L 35.365 27.636 L 36.803 44.074 L 19.37 45.599 L 17.932 29.162 Z M 76.423 19.851 L 93.92 20.157 L 93.632 36.654 L 76.135 36.349 L 76.423 19.851 Z M 76.126 36.849 L 93.623 37.154 L 93.335 53.651 L 75.838 53.346 L 76.126 36.849 Z M 76.719 2.854 L 94.217 3.159 L 93.929 19.657 L 76.431 19.351 L 76.719 2.854 Z" vector-effect="non-scaling-stroke"/></g></svg>