<svg style="background-color: rgb(51,51,51);" width="284px" height="134px" viewBox="0 0 189.05 56.1" xmlns="http://www.w3.org/2000/svg"><g id="svgGroup" stroke-linecap="round" fill-rule="evenodd" font-size="9pt" stroke="#AAA" stroke-width="0.25mm" fill="none" style="stroke:#AAA;stroke-width:0.25mm;fill:none"><path d="M 86 38.1 L 122 38.1 L 122 56.1 L 86 56.1 L 86 38.1 Z M 0 19.05 L 18 19.05 L 18 37.05 L 0 37.05 L 0 19.05 Z M 0 0 L 18 0 L 18 18 L 0 18 L 0 0 Z M 19 19.05 L 37 19.05 L 37 37.05 L 19 37.05 L 19 19.05 Z M 19 0 L 37 0 L 37 18 L 19 18 L 19 0 Z M 38 19.05 L 56 19.05 L 56 37.05 L 38 37.05 L 38 19.05 Z M 38 0 L 56 0 L 56 18 L 38 18 L 38 0 Z M 57 19.05 L 75 19.05 L 75 37.05 L 57 37.05 L 57 19.05 Z M 57 0 L 75 0 L 75 18 L 57 18 L 57 0 Z M 76 19.05 L 94 19.05 L 94 37.05 L 76 37.05 L 76 19.05 Z M 76 0 L 94 0 L 94 18 L 76 18 L 76 0 Z M 9.525 38.1 L 27.525 38.1 L 27.525 56.1 L 9.525 56.1 L 9.525 38.1 Z M 28.525 38.1 L 46.525 38.1 L 46.525 56.1 L 28.525 56.1 L 28.525 38.1 Z M 47.525 38.1 L 65.525 38.1 L 65.525 56.1 L 47.525 56.1 L 47.525 38.1 Z M 66.525 38.1 L 84.525 38.1 L 84.525 56.1 L 66.525 56.1 L 66.525 38.1 Z M 171.05 19.05 L 189.05 19.05 L 189.05 37.05 L 171.05 37.05 L 171.05 19.05 Z M 171.05 0 L 189.05 0 L 189.05 18 L 171.05 18 L 171.05 0 Z M 152.05 19.05 L 170.05 19.05 L 170.05 37.05 L 152.05 37.05 L 152.05 19.05 Z M 152.05 0 L 170.05 0 L 170.05 18 L 152.05 18 L 152.05 0 Z M 133.05 19.05 L 151.05 19.05 L 151.05 37.05 L 133.05 37.05 L 133.05 19.05 Z M 133.05 0 L 151.05 0 L 151.05 18 L 133.05 18 L 133.05 0 Z M 114.05 19.05 L 132.05 19.05 L 132.05 37.05 L 114.05 37.05 L 114.05 19.05 Z M 114.05 0 L 132.05 0 L 132.05 18 L 114.05 18 L 114.05 0 Z M 95.05 19.05 L 113.05 19.05 L 113.05 37.05 L 95.05 37.05 L 95.05 19.05 Z M 95.05 0 L 113.05 0 L 113.05 18 L 95.05 18 L 95.05 0 Z M 161.525 38.1 L 179.525 38.1 L 179.525 56.1 L 161.525 56.1 L 161.525 38.1 Z M 142.525 38.1 L 160.525 38.1 L 160.525 56.1 L 142.525 56.1 L 142.525 38.1 Z M 123.525 38.1 L 141.525 38.1 L 141.525 56.1 L 123.525 56.1 L 123.525 38.1 Z" vector-effect="non-scaling-stroke"/></g></svg>