<svg style="background-color: rgb(51,51,51);" width="284px" height="134px" viewBox="0 0 238.995 94.418" xmlns="http://www.w3.org/2000/svg"><g id="svgGroup" stroke-linecap="round" fill-rule="evenodd" font-size="9pt" stroke="#AAA" stroke-width="0.25mm" fill="none" style="stroke:#AAA;stroke-width:0.25mm;fill:none"><path d="M 189.013 4.75 L 206.739 1.625 L 209.865 19.351 L 192.139 22.477 L 189.013 4.75 Z M 133.921 20.557 L 151.647 17.432 L 154.773 35.158 L 137.046 38.284 L 133.921 20.557 Z M 32.256 1.625 L 49.982 4.75 L 46.857 22.477 L 29.13 19.351 L 32.256 1.625 Z M 80.749 54.854 L 98.476 57.98 L 95.35 75.706 L 77.624 72.581 L 80.749 54.854 Z M 87.348 17.432 L 105.075 20.557 L 101.949 38.284 L 84.222 35.158 L 87.348 17.432 Z M 101.197 48.305 L 118.924 51.431 L 115.798 69.158 L 98.072 66.032 L 101.197 48.305 Z M 211.545 23.117 L 229.271 19.991 L 232.397 37.718 L 214.67 40.843 L 211.545 23.117 Z M 179.331 59.26 L 197.058 56.134 L 200.184 73.861 L 182.457 76.986 L 179.331 59.26 Z M 140.519 57.98 L 158.246 54.854 L 161.372 72.581 L 143.645 75.706 L 140.519 57.98 Z M 3.126 57.414 L 20.852 60.54 L 17.727 78.266 L 0 75.14 L 3.126 57.414 Z M 6.425 38.703 L 24.152 41.828 L 21.026 59.555 L 3.299 56.429 L 6.425 38.703 Z M 9.724 19.991 L 27.451 23.117 L 24.325 40.843 L 6.599 37.718 L 9.724 19.991 Z M 13.024 1.28 L 30.75 4.405 L 27.624 22.132 L 9.898 19.006 L 13.024 1.28 Z M 22.358 57.759 L 40.084 60.884 L 36.959 78.611 L 19.232 75.485 L 22.358 57.759 Z M 28.957 20.336 L 46.683 23.462 L 43.557 41.188 L 25.831 38.063 L 28.957 20.336 Z M 41.938 56.134 L 59.664 59.26 L 56.538 76.986 L 38.812 73.861 L 41.938 56.134 Z M 45.237 37.423 L 62.963 40.548 L 59.838 58.275 L 42.111 55.149 L 45.237 37.423 Z M 48.536 18.711 L 66.263 21.837 L 63.137 39.564 L 45.411 36.438 L 48.536 18.711 Z M 63.08 45.646 L 80.807 48.772 L 77.681 66.498 L 59.954 63.373 L 63.08 45.646 Z M 137.22 39.269 L 154.947 36.143 L 158.072 53.869 L 140.346 56.995 L 137.22 39.269 Z M 120.072 51.431 L 137.798 48.305 L 140.924 66.032 L 123.197 69.158 L 120.072 51.431 Z M 25.657 39.047 L 43.384 42.173 L 40.258 59.9 L 22.532 56.774 L 25.657 39.047 Z M 51.835 0 L 69.562 3.126 L 66.436 20.852 L 48.71 17.727 L 51.835 0 Z M 59.781 64.357 L 77.507 67.483 L 74.382 85.21 L 56.655 82.084 L 59.781 64.357 Z M 66.379 26.935 L 84.106 30.06 L 80.98 47.787 L 63.254 44.661 L 66.379 26.935 Z M 69.679 8.223 L 87.405 11.349 L 84.279 29.076 L 66.553 25.95 L 69.679 8.223 Z M 77.45 73.566 L 95.177 76.691 L 92.051 94.418 L 74.324 91.292 L 77.45 73.566 Z M 84.049 36.143 L 101.775 39.269 L 98.65 56.995 L 80.923 53.869 L 84.049 36.143 Z M 218.143 60.54 L 235.87 57.414 L 238.995 75.14 L 221.269 78.266 L 218.143 60.54 Z M 214.844 41.828 L 232.57 38.703 L 235.696 56.429 L 217.97 59.555 L 214.844 41.828 Z M 208.245 4.405 L 225.972 1.28 L 229.097 19.006 L 211.371 22.132 L 208.245 4.405 Z M 198.911 60.884 L 216.637 57.759 L 219.763 75.485 L 202.037 78.611 L 198.911 60.884 Z M 195.612 42.173 L 213.338 39.047 L 216.464 56.774 L 198.737 59.9 L 195.612 42.173 Z M 192.312 23.462 L 210.039 20.336 L 213.164 38.063 L 195.438 41.188 L 192.312 23.462 Z M 176.032 40.548 L 193.759 37.423 L 196.884 55.149 L 179.158 58.275 L 176.032 40.548 Z M 172.733 21.837 L 190.459 18.711 L 193.585 36.438 L 175.858 39.564 L 172.733 21.837 Z M 169.433 3.126 L 187.16 0 L 190.286 17.727 L 172.559 20.852 L 169.433 3.126 Z M 161.488 67.483 L 179.215 64.357 L 182.34 82.084 L 164.614 85.21 L 161.488 67.483 Z M 158.189 48.772 L 175.915 45.646 L 179.041 63.373 L 161.315 66.498 L 158.189 48.772 Z M 151.59 11.349 L 169.317 8.223 L 172.442 25.95 L 154.716 29.076 L 151.59 11.349 Z M 143.819 76.691 L 161.545 73.566 L 164.671 91.292 L 146.944 94.418 L 143.819 76.691 Z M 154.89 30.06 L 172.616 26.935 L 175.742 44.661 L 158.015 47.787 L 154.89 30.06 Z" vector-effect="non-scaling-stroke"/></g></svg>