<svg style="background-color: rgb(51,51,51);" width="284px" height="134px" viewBox="0 0 216 69" xmlns="http://www.w3.org/2000/svg"><g id="svgGroup" stroke-linecap="round" fill-rule="evenodd" font-size="9pt" stroke="#AAA" stroke-width="0.25mm" fill="none" style="stroke:#AAA;stroke-width:0.25mm;fill:none"><path d="M 0 51 L 18 51 L 18 69 L 0 69 L 0 51 Z M 18 51 L 36 51 L 36 69 L 18 69 L 18 51 Z M 0 34 L 18 34 L 18 52 L 0 52 L 0 34 Z M 18 34 L 36 34 L 36 52 L 18 52 L 18 34 Z M 0 17 L 18 17 L 18 35 L 0 35 L 0 17 Z M 18 17 L 36 17 L 36 35 L 18 35 L 18 17 Z M 0 0 L 18 0 L 18 18 L 0 18 L 0 0 Z M 18 0 L 36 0 L 36 18 L 18 18 L 18 0 Z M 36 51 L 54 51 L 54 69 L 36 69 L 36 51 Z M 36 34 L 54 34 L 54 52 L 36 52 L 36 34 Z M 36 17 L 54 17 L 54 35 L 36 35 L 36 17 Z M 36 0 L 54 0 L 54 18 L 36 18 L 36 0 Z M 54 51 L 72 51 L 72 69 L 54 69 L 54 51 Z M 54 34 L 72 34 L 72 52 L 54 52 L 54 34 Z M 54 17 L 72 17 L 72 35 L 54 35 L 54 17 Z M 54 0 L 72 0 L 72 18 L 54 18 L 54 0 Z M 72 51 L 90 51 L 90 69 L 72 69 L 72 51 Z M 72 34 L 90 34 L 90 52 L 72 52 L 72 34 Z M 72 17 L 90 17 L 90 35 L 72 35 L 72 17 Z M 72 0 L 90 0 L 90 18 L 72 18 L 72 0 Z M 90 51 L 108 51 L 108 69 L 90 69 L 90 51 Z M 90 34 L 108 34 L 108 52 L 90 52 L 90 34 Z M 90 17 L 108 17 L 108 35 L 90 35 L 90 17 Z M 90 0 L 108 0 L 108 18 L 90 18 L 90 0 Z M 108 51 L 126 51 L 126 69 L 108 69 L 108 51 Z M 108 34 L 126 34 L 126 52 L 108 52 L 108 34 Z M 108 17 L 126 17 L 126 35 L 108 35 L 108 17 Z M 108 0 L 126 0 L 126 18 L 108 18 L 108 0 Z M 117 69 L 99 69 L 99 51 L 117 51 L 117 69 Z M 126 51 L 144 51 L 144 69 L 126 69 L 126 51 Z M 126 34 L 144 34 L 144 52 L 126 52 L 126 34 Z M 126 17 L 144 17 L 144 35 L 126 35 L 126 17 Z M 126 0 L 144 0 L 144 18 L 126 18 L 126 0 Z M 144 51 L 162 51 L 162 69 L 144 69 L 144 51 Z M 144 34 L 162 34 L 162 52 L 144 52 L 144 34 Z M 144 17 L 162 17 L 162 35 L 144 35 L 144 17 Z M 144 0 L 162 0 L 162 18 L 144 18 L 144 0 Z M 162 51 L 180 51 L 180 69 L 162 69 L 162 51 Z M 162 34 L 180 34 L 180 52 L 162 52 L 162 34 Z M 162 17 L 180 17 L 180 35 L 162 35 L 162 17 Z M 162 0 L 180 0 L 180 18 L 162 18 L 162 0 Z M 180 51 L 198 51 L 198 69 L 180 69 L 180 51 Z M 180 34 L 198 34 L 198 52 L 180 52 L 180 34 Z M 180 17 L 198 17 L 198 35 L 180 35 L 180 17 Z M 180 0 L 198 0 L 198 18 L 180 18 L 180 0 Z M 198 51 L 216 51 L 216 69 L 198 69 L 198 51 Z M 198 34 L 216 34 L 216 52 L 198 52 L 198 34 Z M 198 17 L 216 17 L 216 35 L 198 35 L 198 17 Z M 198 0 L 216 0 L 216 18 L 198 18 L 198 0 Z" vector-effect="non-scaling-stroke"/></g></svg>