<svg style="background-color: rgb(51,51,51);" width="284px" height="134px" viewBox="0 0 110.918 94.062" xmlns="http://www.w3.org/2000/svg"><g id="svgGroup" stroke-linecap="round" fill-rule="evenodd" font-size="9pt" stroke="#AAA" stroke-width="0.25mm" fill="none" style="stroke:#AAA;stroke-width:0.25mm;fill:none"><path d="M 71.273 65.249 L 88.999 68.375 L 85.873 86.101 L 68.147 82.975 L 71.273 65.249 Z M 0 55.435 L 18 55.435 L 18 73.435 L 0 73.435 L 0 55.435 Z M 0 36.385 L 18 36.385 L 18 54.385 L 0 54.385 L 0 36.385 Z M 0 17.335 L 18 17.335 L 18 35.335 L 0 35.335 L 0 17.335 Z M 19 42.862 L 37 42.862 L 37 60.862 L 19 60.862 L 19 42.862 Z M 19 23.812 L 37 23.812 L 37 41.812 L 19 41.812 L 19 23.812 Z M 19 4.762 L 37 4.762 L 37 22.762 L 19 22.762 L 19 4.762 Z M 38 38.1 L 56 38.1 L 56 56.1 L 38 56.1 L 38 38.1 Z M 38 19.05 L 56 19.05 L 56 37.05 L 38 37.05 L 38 19.05 Z M 38 0 L 56 0 L 56 18 L 38 18 L 38 0 Z M 57 42.862 L 75 42.862 L 75 60.862 L 57 60.862 L 57 42.862 Z M 57 23.812 L 75 23.812 L 75 41.812 L 57 41.812 L 57 23.812 Z M 57 4.762 L 75 4.762 L 75 22.762 L 57 22.762 L 57 4.762 Z M 76 45.72 L 94 45.72 L 94 63.72 L 76 63.72 L 76 45.72 Z M 76 26.67 L 94 26.67 L 94 44.67 L 76 44.67 L 76 26.67 Z M 76 7.62 L 94 7.62 L 94 25.62 L 76 25.62 L 76 7.62 Z M 94.604 70.142 L 110.918 77.749 L 103.311 94.062 L 86.997 86.455 L 94.604 70.142 Z" vector-effect="non-scaling-stroke"/></g></svg>