<svg style="background-color: rgb(51,51,51);" width="284px" height="134px" viewBox="0 0 93.47 61" xmlns="http://www.w3.org/2000/svg"><g id="svgGroup" stroke-linecap="round" fill-rule="evenodd" font-size="9pt" stroke="#AAA" stroke-width="0.25mm" fill="none" style="stroke:#AAA;stroke-width:0.25mm;fill:none"><path d="M 1.482 39.353 L 19.413 37.784 L 20.982 55.716 L 3.05 57.285 L 1.482 39.353 Z M 0 22.418 L 17.932 20.849 L 19.5 38.78 L 1.569 40.349 L 0 22.418 Z M 20.47 22 L 38.47 22 L 38.47 40 L 20.47 40 L 20.47 22 Z M 20.47 5 L 38.47 5 L 38.47 23 L 20.47 23 L 20.47 5 Z M 38.47 17 L 56.47 17 L 56.47 35 L 38.47 35 L 38.47 17 Z M 38.47 0 L 56.47 0 L 56.47 18 L 38.47 18 L 38.47 0 Z M 56.47 23 L 74.47 23 L 74.47 41 L 56.47 41 L 56.47 23 Z M 56.47 6 L 74.47 6 L 74.47 24 L 56.47 24 L 56.47 6 Z M 76.47 43 L 76.47 61 L 58.47 61 L 58.47 43 L 76.47 43 Z M 75.47 61 L 75.47 43 L 93.47 43 L 93.47 61 L 75.47 61 Z" vector-effect="non-scaling-stroke"/></g></svg>